<svg width="32" height="32" viewBox="0 0 24 24" fill="none" xmlns="http://www.w3.org/2000/svg">
  <defs>
    <filter id="glow-youtube" x="-50%" y="-50%" width="200%" height="200%">
      <feGaussianBlur stdDeviation="2" result="coloredBlur"/>
      <feMerge>
        <feMergeNode in="coloredBlur"/>
        <feMergeNode in="SourceGraphic"/>
      </feMerge>
    </filter>
  </defs>
  <path d="M22.54 6.42a2.78 2.78 0 0 0-1.94-2C18.88 4 12 4 12 4s-6.88 0-8.6.42a2.78 2.78 0 0 0-1.94 2A29 29 0 0 0 1 11.75a29 29 0 0 0 .46 5.33a2.78 2.78 0 0 0 1.94 2c1.72.42 8.6.42 8.6.42s6.88 0 8.6-.42a2.78 2.78 0 0 0 1.94-2a29 29 0 0 0 .46-5.33a29 29 0 0 0-.46-5.33z" stroke="white" stroke-width="1.5" fill="none" filter="url(#glow-youtube)"/>
  <path d="M9.75 15.02l5.75-3.27l-5.75-3.27v6.54z" stroke="white" stroke-width="1.5" fill="white" filter="url(#glow-youtube)"/>
</svg>
